<svg xmlns="http://www.w3.org/2000/svg" xml:space="preserve" fill-rule="evenodd" stroke-linecap="round" stroke-linejoin="round" clip-rule="evenodd" viewBox="0 0 1459 1242">
  <path fill="#e5feff" fill-rule="nonzero" stroke="#45413c" stroke-width="20.89" d="m1199.29 339.171 19.63 73.259 65.186-17.467c17.825-4.776 36.423 5.962 41.199 23.786l.053.202 25.903 96.669c7.198 26.428-2.376 54.73-24.14 71.36l-51.043 38.768 24.01 89.606 81.212-65.022c42.442-33.201 61.019-88.832 47.044-140.874l-36.068-134.61c-11.867-44.285-58.072-70.962-102.357-59.096l-90.629 23.419Z"/>
  <path fill="#d1b709" fill-rule="nonzero" d="M1337.65 757.852 873.476 882.227a86.32 86.32 0 0 0 8.9-64.464L764.328 377.201l415.334-111.288 118.048 440.561a87.16 87.16 0 0 0 40.21 52.387l-.27-1.009Z"/>
  <path fill="#f3dc49" fill-rule="nonzero" d="m1134.58 277.993-352.408 94.428L900.22 812.982c5.914 22.097-3.614 47.385-26.471 70.254l394.669-105.752-133.838-499.491Z"/>
  <path fill="#45413c" fill-opacity=".15" fill-rule="nonzero" d="M851.025 1207.03c0 17.192 136.758 31.34 302.954 31.34s302.954-14.148 302.954-31.34c0-17.193-136.758-31.34-302.954-31.34s-302.954 14.147-302.954 31.34Z"/>
  <path fill="none" stroke="#45413c" stroke-width="20.89" d="M1337.65 757.852 873.476 882.227a86.32 86.32 0 0 0 8.9-64.464L764.328 377.201l415.334-111.288 118.048 440.561a87.16 87.16 0 0 0 40.21 52.387l-.27-1.009Z"/>
  <path fill="#e4c900" fill-rule="nonzero" d="M863.553 551.345c3.59 13.396 17.567 21.466 30.963 17.876 13.396-3.589 21.466-17.567 17.876-30.963-3.589-13.396-17.566-21.466-30.962-17.876-13.396 3.589-21.466 17.566-17.877 30.963ZM1023.83 401.156c2.402 8.968 11.759 14.37 20.727 11.967 8.967-2.403 14.369-11.759 11.967-20.727-2.403-8.968-11.76-14.37-20.728-11.967-8.967 2.403-14.369 11.76-11.966 20.727Z"/>
  <path fill="#45413c" fill-opacity=".15" fill-rule="nonzero" d="M777.578 426.646a68.413 68.413 0 0 0 8.678-2.326 60.79 60.79 0 0 0 24.412-13.03l15.574 58.123c.119.714.273 1.422.461 2.122 3.203 11.957 15.679 19.159 27.636 15.956 11.957-3.204 19.159-15.68 15.956-27.637a22.811 22.811 0 0 0-.663-2.068l-14.871-55.499a88.79 88.79 0 0 0 27.17-2.737 83.55 83.55 0 0 0 16.815-6.669l28.444 106.155c6.923 19.974 28.369 31.35 48.79 25.879 20.42-5.472 33.305-26.047 29.313-46.807l-27.904-104.136a115.34 115.34 0 0 0 55.786-33.983c36.966 15.52 80.085 3.966 104.338-27.957a62.705 62.705 0 0 0 48.001 6.389 48.637 48.637 0 0 0 7.669-2.055l-13.519-50.453L764.33 377.201l13.248 49.445Z"/>
  <path fill="#fff" fill-rule="nonzero" stroke="#45413c" stroke-width="20.89" d="M1221.76 210.722c-8.899-33.213-43.553-53.221-76.767-44.321a64.384 64.384 0 0 0-14.595 6.073c-22.094-29.178-59.904-42.066-95.219-32.455a95.67 95.67 0 0 0-16.318 6.102c-29.388-27.837-71.247-38.447-110.348-27.97-38.426 10.296-69.024 39.575-81.001 77.512-35.389 9.334-61.69 39.401-66.233 75.717a64.33 64.33 0 0 0-15.677 2.037c-33.214 8.9-53.221 43.554-44.322 76.767 8.9 33.214 43.554 53.222 76.767 44.322a60.79 60.79 0 0 0 24.412-13.03l15.574 58.122c4.052 10.83 15.806 16.881 26.974 13.888 11.169-2.992 18.322-14.11 16.416-25.514l-15.033-56.104a88.821 88.821 0 0 0 27.17-2.738 83.55 83.55 0 0 0 16.815-6.669l28.444 106.155c6.923 19.975 28.369 31.35 48.789 25.879 20.42-5.472 33.306-26.047 29.313-46.807l-27.903-104.136a115.344 115.344 0 0 0 55.786-33.983c36.966 15.52 80.085 3.966 104.338-27.957a62.7 62.7 0 0 0 48.302 6.695c33.214-8.899 53.221-43.553 44.322-76.767a58.68 58.68 0 0 0-.154-.562l.148-.256Z"/>
  <path fill="#e4c900" fill-rule="nonzero" d="M1151.39 648.777c3.59 13.396 17.567 21.466 30.963 17.876 13.396-3.589 21.466-17.566 17.877-30.962-3.59-13.397-17.567-21.466-30.963-17.877-13.396 3.59-21.466 17.567-17.877 30.963Z"/>
  <path fill="#ebcb00" fill-rule="nonzero" d="M977.191 747.799c2.403 8.967 11.759 14.37 20.727 11.967 8.968-2.403 14.37-11.76 11.967-20.728-2.403-8.967-11.76-14.369-20.727-11.966-8.968 2.403-14.37 11.759-11.967 20.727Z"/>
  <path fill="#e4c900" fill-rule="nonzero" d="M870.459 642.505c2.403 8.968 11.76 14.37 20.727 11.967 8.968-2.403 14.37-11.759 11.967-20.727-2.403-8.968-11.759-14.37-20.727-11.967-8.968 2.403-14.37 11.759-11.967 20.727ZM1086.99 506.114c2.403 8.968 11.76 14.37 20.727 11.967 8.968-2.403 14.37-11.759 11.967-20.727-2.403-8.968-11.759-14.37-20.727-11.967-8.968 2.403-14.37 11.76-11.967 20.727Z"/>
  <path fill="#fff" fill-rule="nonzero" stroke="#45413c" stroke-width="20.89" d="M1144.12 435.719c.296.834.558 1.678.787 2.532 4.776 17.825-5.961 36.422-23.786 41.198-17.825 4.777-36.422-5.961-41.198-23.785a33.664 33.664 0 0 1-.585-2.586 218.349 218.349 0 0 1 10.791-69.513 6.698 6.698 0 0 1 4.584-4.69 6.277 6.277 0 0 1 6.113 1.823 212.932 212.932 0 0 1 43.294 55.021Z"/>
  <path fill="#e5feff" fill-rule="nonzero" stroke="#45413c" stroke-width="20.89" d="M1380.13 785.62c5.626 19.653-5.852 40.465-25.476 46.193L896.131 954.674c-19.452 3.694-38.7-8.391-43.824-27.516-5.125-19.125 5.502-39.215 24.194-45.743l458.523-122.86c19.782-4.831 40.06 7.337 45.106 27.065Z"/>
  <g fill="#45413c" fill-rule="nonzero">
    <path d="M978.23 798.364c29-7.771 44.744-28.533 35.657-62.445l-29.954-111.792-32.743 8.773 29.829 111.324c4.387 16.372-1.267 22.399-12.025 25.281-11.226 3.008-17.972-3.456-25.561-11.199l-22.338 23.282c12.105 14.303 30.941 23.794 57.135 16.776ZM1104.52 764.524c31.105-8.335 49.935-30.676 42.039-60.144-7.332-27.364-26.26-35.326-57.287-39.797l-9.126-1.314c-15.662-2.321-22.808-4.668-25.44-14.49-2.13-7.952 2.321-15.662 11.91-18.232 9.355-2.506 16.501-.16 24.809 8.393l21.105-23.202c-15.834-16.061-32.745-19.3-53.559-13.723-29.235 7.833-42.931 31.556-36.351 56.113 7.144 26.662 26.197 35.092 52.513 38.82l9.126 1.314c16.722 2.538 26.675 4.133 29.683 15.359 2.507 9.355-4.329 18.456-17.894 22.09-16.137 4.324-27.515-1.651-37.601-11.231l-22.526 22.58c14.665 16.374 38.195 25.61 68.599 17.464Z"/>
  </g>
  <path fill="#44403b" fill-rule="nonzero" d="M973.863 207.158c4.366-1.42 6.205-6.681 4.898-11.556-1.873-6.993-9.393-12.825-15.827-15.246a24.19 24.19 0 0 0-16.463-.835c-4.875 1.306-9.996 7.446-8.69 12.322 1.306 4.875 6.106 6.858 10.981 5.551 4.722-1.265 11.659.624 14.37 5.144 2.306 4.878 6.365 6.039 10.731 4.62ZM776.397 317.663c-1.419-4.366-6.68-6.204-11.555-4.898-6.993 1.874-12.825 9.394-15.246 15.827a24.183 24.183 0 0 0-.835 16.463c1.306 4.875 7.446 9.996 12.321 8.69 4.876-1.306 6.858-6.106 5.552-10.981-1.265-4.721.624-11.659 5.144-14.369 4.878-2.307 6.039-6.366 4.619-10.732Z"/>
  <path fill="#45413c" d="M1059.44 190.043c7.211-1.932 14.633 2.354 16.565 9.564 1.932 7.21-2.353 14.633-9.564 16.565-7.21 1.932-14.632-2.354-16.564-9.564-1.932-7.21 2.353-14.633 9.563-16.565Z"/>
  <g>
    <path fill="#e5feff" fill-rule="nonzero" stroke="#45413c" stroke-width="20.89" d="m245.45 603.847-19.629 73.259-65.187-17.467c-17.825-4.776-36.422 5.961-41.199 23.786l-.053.202-25.902 96.669c-7.199 26.428 2.375 54.73 24.14 71.36l51.042 38.768-24.01 89.606-81.212-65.022c-42.441-33.201-61.019-88.832-47.044-140.874l36.069-134.61c11.866-44.285 58.071-70.962 102.356-59.096l90.629 23.419Z"/>
    <path fill="#d1b709" fill-rule="nonzero" d="m107.092 1022.53 464.174 124.375a86.321 86.321 0 0 1-8.9-64.465l118.048-440.561L265.08 530.591 147.032 971.152a87.16 87.16 0 0 1-40.21 52.387l.27-1.009Z"/>
    <path fill="#f3dc49" fill-rule="nonzero" d="m310.165 542.669 352.408 94.428-118.048 440.561c-5.914 22.097 3.614 47.385 26.471 70.254L176.327 1042.16l133.838-499.491Z"/>
    <path fill="#45413c" fill-opacity=".15" fill-rule="nonzero" d="M624.587 1207.03c0 17.192-136.758 31.34-302.954 31.34-166.195 0-302.954-14.148-302.954-31.34 0-17.193 136.759-31.34 302.954-31.34 166.196 0 302.954 14.147 302.954 31.34Z"/>
    <path fill="none" stroke="#45413c" stroke-width="20.89" d="m107.092 1022.53 464.174 124.375a86.321 86.321 0 0 1-8.9-64.465l118.048-440.561L265.08 530.591 147.032 971.152a87.16 87.16 0 0 1-40.21 52.387l.27-1.009Z"/>
    <path fill="#e4c900" fill-rule="nonzero" d="M581.191 816.021c-3.59 13.396-17.567 21.465-30.963 17.876-13.396-3.59-21.466-17.567-17.876-30.963 3.589-13.396 17.566-21.466 30.962-17.876 13.397 3.589 21.466 17.566 17.877 30.963ZM420.92 665.832c-2.403 8.968-11.76 14.37-20.728 11.967-8.967-2.403-14.369-11.759-11.966-20.727 2.402-8.968 11.759-14.37 20.727-11.967 8.967 2.403 14.369 11.76 11.967 20.727Z"/>
    <path fill="#45413c" fill-opacity=".15" fill-rule="nonzero" d="M667.166 691.322a68.581 68.581 0 0 1-8.678-2.326 60.79 60.79 0 0 1-24.412-13.03l-15.574 58.123a22.65 22.65 0 0 1-.46 2.122c-3.204 11.957-15.68 19.159-27.637 15.955-11.957-3.203-19.159-15.679-15.955-27.636.187-.699.408-1.389.662-2.068l14.871-55.499a88.79 88.79 0 0 1-27.17-2.737 83.55 83.55 0 0 1-16.815-6.669l-28.444 106.155c-6.923 19.974-28.369 31.35-48.789 25.879-20.421-5.472-33.306-26.047-29.314-46.807l27.904-104.136a115.344 115.344 0 0 1-55.786-33.983c-36.966 15.52-80.085 3.966-104.338-27.957a62.704 62.704 0 0 1-48.001 6.389 48.637 48.637 0 0 1-7.669-2.055l13.519-50.453 415.334 111.288-13.248 49.445Z"/>
    <path fill="#fff" fill-rule="nonzero" stroke="#45413c" stroke-width="20.89" d="M222.98 475.398c8.9-33.214 43.554-53.221 76.767-44.321a64.391 64.391 0 0 1 14.596 6.073c22.093-29.178 59.903-42.066 95.218-32.455a95.67 95.67 0 0 1 16.318 6.102c29.389-27.837 71.247-38.447 110.348-27.97 38.427 10.296 69.024 39.575 81.001 77.512 35.389 9.334 61.69 39.4 66.234 75.717a64.328 64.328 0 0 1 15.676 2.037c33.214 8.9 53.222 43.554 44.322 76.767-8.9 33.214-43.554 53.222-76.767 44.322a60.81 60.81 0 0 1-24.412-13.03l-15.574 58.122c-4.052 10.829-15.805 16.881-26.974 13.888-11.168-2.992-18.321-14.11-16.416-25.514l15.033-56.105a88.796 88.796 0 0 1-27.17-2.737 83.573 83.573 0 0 1-16.815-6.669l-28.444 106.155c-6.923 19.974-28.369 31.35-48.789 25.879-20.42-5.472-33.306-26.047-29.313-46.807l27.903-104.136a115.349 115.349 0 0 1-55.786-33.983c-36.965 15.52-80.084 3.966-104.338-27.957a62.704 62.704 0 0 1-48.302 6.695c-33.214-8.899-53.221-43.553-44.322-76.767l.154-.562-.148-.256Z"/>
    <path fill="#e4c900" fill-rule="nonzero" d="M293.356 913.453c-3.59 13.396-17.567 21.466-30.963 17.876-13.396-3.589-21.466-17.566-17.876-30.962 3.589-13.397 17.566-21.466 30.962-17.877 13.397 3.59 21.466 17.567 17.877 30.963Z"/>
    <path fill="#ebcb00" fill-rule="nonzero" d="M467.553 1012.48c-2.403 8.967-11.759 14.369-20.727 11.967-8.968-2.403-14.37-11.76-11.967-20.728 2.403-8.967 11.76-14.369 20.727-11.966 8.968 2.402 14.37 11.759 11.967 20.727Z"/>
    <path fill="#e4c900" fill-rule="nonzero" d="M574.285 907.181c-2.403 8.968-11.759 14.37-20.727 11.967-8.968-2.403-14.37-11.76-11.967-20.727 2.403-8.968 11.76-14.37 20.727-11.967 8.968 2.403 14.37 11.759 11.967 20.727ZM357.755 770.79c-2.403 8.968-11.76 14.37-20.727 11.967-8.968-2.403-14.37-11.759-11.967-20.727 2.403-8.968 11.759-14.37 20.727-11.967 8.968 2.403 14.37 11.76 11.967 20.727Z"/>
    <path fill="#fff" fill-rule="nonzero" stroke="#45413c" stroke-width="20.89" d="M300.629 700.395a33.53 33.53 0 0 0-.787 2.532c-4.776 17.825 5.961 36.422 23.786 41.198 17.825 4.777 36.422-5.961 41.198-23.785.229-.854.424-1.717.585-2.586a218.36 218.36 0 0 0-10.791-69.514 6.694 6.694 0 0 0-4.584-4.689 6.275 6.275 0 0 0-6.112 1.823 212.915 212.915 0 0 0-43.295 55.021Z"/>
    <path fill="#e5feff" fill-rule="nonzero" stroke="#45413c" stroke-width="20.89" d="M64.611 1050.3c-5.627 19.653 5.851 40.465 25.475 46.193l458.523 122.861c19.452 3.694 38.7-8.392 43.825-27.516 5.124-19.125-5.502-39.216-24.195-45.743l-458.523-122.86c-19.782-4.831-40.06 7.336-45.105 27.065Z"/>
    <g fill="#45413c" fill-rule="nonzero">
      <path d="M335.077 1027.82c29 7.771 53.015-2.338 62.102-36.25l29.955-111.792-32.743-8.773-29.829 111.324c-4.387 16.371-12.297 18.763-23.055 15.881-11.226-3.008-13.836-11.979-16.537-22.479l-30.985 8.993c3.331 18.439 14.898 36.077 41.092 43.096ZM461.369 1061.66c31.105 8.335 58.583-1.599 66.479-31.067 7.332-27.363-5.079-43.723-29.714-63.108l-7.246-5.702c-12.403-9.84-17.419-15.446-14.787-25.268 2.131-7.952 9.841-12.403 19.43-9.834 9.355 2.507 14.37 8.112 17.289 19.672l29.879-9.54c-5.683-21.827-18.708-33.087-39.523-38.665-29.234-7.833-52.957 5.864-59.537 30.42-7.144 26.662 5.141 43.49 26.068 59.876l7.246 5.701c13.213 10.559 21.035 16.917 18.027 28.143-2.507 9.354-12.977 13.818-26.542 10.184-16.137-4.324-23.003-15.188-26.948-28.528l-30.798 8.292c4.513 21.513 20.273 41.277 50.677 49.424Z"/>
    </g>
    <path fill="#44403b" fill-rule="nonzero" d="M470.881 471.834c-4.366-1.42-6.204-6.681-4.898-11.556 1.874-6.993 9.394-12.825 15.827-15.246a24.19 24.19 0 0 1 16.463-.835c4.875 1.306 9.996 7.446 8.69 12.322-1.306 4.875-6.106 6.858-10.981 5.551-4.721-1.265-11.659.624-14.37 5.144-2.306 4.878-6.365 6.039-10.731 4.62ZM668.347 582.339c1.42-4.366 6.68-6.205 11.555-4.898 6.993 1.874 12.826 9.393 15.246 15.827a24.19 24.19 0 0 1 .836 16.463c-1.307 4.875-7.447 9.996-12.322 8.69-4.875-1.306-6.858-6.106-5.552-10.981 1.265-4.721-.623-11.659-5.144-14.37-4.878-2.306-6.039-6.365-4.619-10.731Z"/>
    <path fill="#45413c" d="M385.306 454.719c-7.21-1.932-14.633 2.354-16.565 9.564-1.932 7.21 2.353 14.633 9.564 16.565 7.21 1.932 14.633-2.354 16.565-9.564 1.932-7.21-2.354-14.633-9.564-16.565Z"/>
  </g>
  <g fill="#fff" fill-rule="nonzero" stroke="#45413c" stroke-linecap="butt" stroke-width="21.71">
    <path d="M631.127 83.982a5.885 5.885 0 0 1 4.748 1.809 6.56 6.56 0 0 1 1.582 4.974l-11.531 75.518a5.892 5.892 0 0 1-5.2 4.748 5.67 5.67 0 0 1-5.879-3.844L589.75 95.966a5.66 5.66 0 0 1 0-4.975 6.338 6.338 0 0 1 4.296-2.713l37.081-4.296ZM761.586 116.767a6.334 6.334 0 0 1 2.714 4.07 6.11 6.11 0 0 1-1.809 4.974l-56.073 51.777a5.667 5.667 0 0 1-7.009 0 5.893 5.893 0 0 1-2.487-6.783l22.61-71.674a5.884 5.884 0 0 1 3.391-3.618 5.43 5.43 0 0 1 4.974 0l33.689 21.254ZM484.388 133.724a5.653 5.653 0 0 0 0 9.044l55.168 52.908a5.882 5.882 0 0 0 3.781 1.377c3.225 0 5.879-2.653 5.879-5.878 0-.464-.055-.927-.164-1.378l-22.61-71.674a4.978 4.978 0 0 0-3.391-3.617 5.657 5.657 0 0 0-4.974 0l-33.689 19.218ZM399.826 237.278a5.663 5.663 0 0 0-.388 2.059c0 2.906 2.242 5.363 5.136 5.629l75.97 8.817a5.668 5.668 0 0 0 6.105-3.617c.95-2.502 0-5.352-2.261-6.783l-61.952-42.959a5.65 5.65 0 0 0-8.365 2.487l-14.245 34.367Z"/>
  </g>
  <g fill="none" stroke="#45413c" stroke-width="22.61">
    <path d="M901.295 48.902V12.5M882.981 30.814h36.402"/>
  </g>
  <path fill="#fff" fill-rule="nonzero" stroke="#45413c" stroke-width="22.61" d="M1084.45 74.904c0 14.264 11.737 26.001 26.001 26.001 14.264 0 26.002-11.737 26.002-26.001 0-14.264-11.738-26.002-26.002-26.002s-26.001 11.738-26.001 26.002ZM179.589 356.025c0 12.528 10.309 22.837 22.836 22.837 12.528 0 22.836-10.309 22.836-22.837 0-12.527-10.308-22.836-22.836-22.836-12.527 0-22.836 10.309-22.836 22.836Z"/>
  <g fill="none" stroke="#45413c" stroke-width="22.61">
    <path d="M241.513 158.201v-13.792M270.68 170.184l9.496-9.722M282.664 199.125h13.566M270.68 228.066l9.496 9.722M241.513 240.275v13.566M212.573 228.066l-9.723 9.722M200.589 199.125h-13.792M212.573 170.184l-9.723-9.722"/>
  </g>
</svg>
