<svg xmlns="http://www.w3.org/2000/svg" xml:space="preserve" fill-rule="evenodd" stroke-linecap="round" stroke-linejoin="round" clip-rule="evenodd" viewBox="0 0 1105 1330">
  <path fill="none" stroke="#45413c" stroke-width="33.53" d="M802.139 483.349v121.723H910.45c29.616 0 53.987 24.37 53.987 53.987l-.002.335v160.62c.182 43.959-26.416 83.857-67.064 100.597l-95.232 38.897v148.884l152.907-67.065c79.586-33.841 131.494-112.365 131.447-198.847V618.82c0-73.581-60.548-134.129-134.129-134.129l-150.225-1.342Z"/>
  <path fill="none" stroke="#45413c" stroke-width="33.53" d="M842.713 1189.88H71.47a138.531 138.531 0 0 0 40.574-96.238v-732.01h690.095v732.01a139.879 139.879 0 0 0 40.574 97.915v-1.677Z"/>
  <path fill="#fff" fill-rule="nonzero" stroke="#45413c" stroke-width="33.53" d="M890.329 293.556c0-55.185-45.411-100.597-100.597-100.597a103.287 103.287 0 0 0-25.149 3.354c-22.129-54.412-75.391-90.097-134.129-89.867-9.34.046-18.656.944-27.832 2.683-33.997-55.362-94.481-89.198-159.447-89.198-63.848 0-123.443 32.68-157.769 86.515-58.739-.23-112 35.455-134.129 89.867a103.294 103.294 0 0 0-25.149-3.354c-55.186 0-100.597 45.412-100.597 100.597 0 55.186 45.411 100.597 100.597 100.597a97.573 97.573 0 0 0 43.256-10.059v96.573c1.784 18.471 17.491 32.734 36.048 32.734 18.556 0 34.263-14.263 36.047-32.734v-93.22a142.53 142.53 0 0 0 43.256 7.042 134.114 134.114 0 0 0 28.838-3.354v176.38c2.435 33.842 30.956 60.386 64.885 60.386s62.451-26.544 64.885-60.386V394.489A185.121 185.121 0 0 0 543.94 364.98c50.859 39.415 122.503 39.415 173.362 0a100.635 100.635 0 0 0 72.099 30.444c55.186 0 100.597-45.411 100.597-100.597 0-.312-.001-.624-.004-.935l.335-.336Z"/>
  <path fill="none" stroke="#45413c" stroke-width="33.53" d="M897.036 1250.57c.558 32.805-25.88 60.3-58.682 61.029H76.5c-31.69-2.354-56.508-29.085-56.508-60.862 0-31.776 24.818-58.507 56.508-60.861h761.854c32.673.728 59.055 28.015 58.682 60.694Z"/>
  <g fill="#45413c" fill-rule="nonzero">
    <path d="M268.696 1103.38c48.185 0 81.215-25.647 81.215-81.993V835.641h-54.402v184.969c0 27.202-11.269 34.196-29.145 34.196-18.652 0-26.424-12.823-34.973-27.978l-44.299 26.812c12.823 27.202 38.082 49.74 81.604 49.74ZM478.535 1103.38c51.683 0 90.153-26.813 90.153-75.775 0-45.465-26.035-65.672-72.278-85.49l-13.6-5.829c-23.316-10.104-33.419-16.71-33.419-33.03 0-13.213 10.103-23.316 26.035-23.316 15.544 0 25.647 6.606 34.974 23.316l42.356-27.202c-17.875-31.476-42.745-43.522-77.33-43.522-48.573 0-79.661 31.087-79.661 71.889 0 44.3 26.036 65.284 65.284 81.993l13.6 5.829c24.87 10.881 39.637 17.487 39.637 36.139 0 15.544-14.378 26.813-36.917 26.813-26.812 0-41.967-13.99-53.625-33.03l-44.3 25.647c15.933 31.475 48.574 55.568 99.091 55.568Z"/>
  </g>
</svg>
