<svg xmlns="http://www.w3.org/2000/svg" xml:space="preserve" fill-rule="evenodd" stroke-linecap="round" stroke-linejoin="round" clip-rule="evenodd" viewBox="0 0 1184 1646">
  <path fill="#fff" fill-rule="nonzero" stroke="#45413c" stroke-width="34.95" d="M868.31 729.2v126.855h112.877c30.865 0 56.263 25.398 56.263 56.264l-.001.349v167.392c.19 45.814-27.53 87.394-69.892 104.839l-99.247 40.538v155.161l159.354-69.892c82.942-35.268 137.039-117.103 136.99-207.232V870.383c0-76.684-63.102-139.785-139.785-139.785L868.31 729.2Z"/>
  <path fill="#cdcdcd" fill-rule="nonzero" d="M910.595 1465.52H106.831a144.373 144.373 0 0 0 42.285-100.295V602.348H868.31v762.877a145.773 145.773 0 0 0 42.285 102.043v-1.748Z"/>
  <path fill="#f5f5f5" fill-rule="nonzero" d="M790.24 602.345H180.01v762.877c-.011 38.261-26.352 74.991-73.179 102.043H790.24v-864.92Z"/>
  <path fill="#45413c" fill-opacity=".15" fill-rule="nonzero" d="M1.992 1592.37c0 28.757 228.742 52.42 506.721 52.42 277.978 0 506.72-23.663 506.72-52.42 0-28.756-228.742-52.419-506.72-52.419-277.979 0-506.721 23.663-506.721 52.419Z"/>
  <path fill="none" stroke="#45413c" stroke-width="34.95" d="M910.595 1465.52H106.831a144.373 144.373 0 0 0 42.285-100.295V602.348H868.31v762.877a145.773 145.773 0 0 0 42.285 102.043v-1.748Z"/>
  <path fill="#ccc" fill-rule="nonzero" d="M250.702 939.173c0 12.91 10.624 23.534 23.535 23.534s23.535-10.624 23.535-23.534c0-12.911-10.624-23.535-23.535-23.535s-23.535 10.624-23.535 23.535ZM557.987 742.966c0 9.814 8.076 17.89 17.89 17.89s17.89-8.076 17.89-17.89-8.076-17.889-17.89-17.889-17.89 8.075-17.89 17.889Z"/>
  <path fill="#fff" fill-rule="nonzero" stroke="#45413c" stroke-width="34.95" d="M842.449 300.06c0 22.047 18.142 40.189 40.189 40.189 22.046 0 40.188-18.142 40.188-40.189 0-22.046-18.142-40.188-40.188-40.188-22.047 0-40.189 18.142-40.189 40.188ZM92.853 293.421c0 19.362 15.933 35.295 35.295 35.295 19.363 0 35.296-15.933 35.296-35.295 0-19.363-15.933-35.296-35.296-35.296-19.362 0-35.295 15.933-35.295 35.296Z"/>
  <path fill="#45413c" fill-opacity=".15" fill-rule="nonzero" d="M149.116 687.964c5.004.328 10.023.328 15.027 0a101.698 101.698 0 0 0 45.081-10.484v100.645a37.56 37.56 0 0 0-.175 3.628c0 20.704 17.037 37.741 37.742 37.741 20.704 0 37.742-17.037 37.742-37.741 0-1.212-.059-2.422-.175-3.628v-96.102a148.542 148.542 0 0 0 45.081 7.339 139.832 139.832 0 0 0 30.053-3.495v183.817c2.537 35.268 32.262 62.932 67.621 62.932 35.36 0 65.084-27.664 67.621-62.932V689.362a192.925 192.925 0 0 0 104.839-30.753c53.003 41.076 127.669 41.076 180.672 0a104.88 104.88 0 0 0 74.785 31.102c4.419.362 8.86.362 13.28 0v-87.366H149.116v85.619Z"/>
  <path fill="none" stroke="#45413c" stroke-width="34.95" d="M313.713 41.109V19.792M358.793 59.63l14.678-15.027M377.315 104.362h20.968M358.793 149.093l14.678 15.027M313.713 167.964v20.967M268.982 149.093l-15.027 15.027M250.46 104.362h-21.317M268.982 59.63l-15.027-15.027M649.546 176.351v-56.264M621.24 148.394h56.263"/>
  <path fill="#fff" fill-rule="nonzero" stroke="#45413c" stroke-width="34.95" d="M960.218 531.405c0-57.513-47.326-104.839-104.839-104.839a107.65 107.65 0 0 0-26.209 3.494c-23.062-56.705-78.57-93.895-139.785-93.655-9.733.048-19.442.983-29.006 2.795-35.429-57.696-98.464-92.959-166.17-92.959-66.54 0-128.648 34.058-164.421 90.164-61.215-.24-116.723 36.95-139.785 93.655a107.657 107.657 0 0 0-26.21-3.494c-57.512 0-104.838 47.326-104.838 104.839 0 57.512 47.326 104.838 104.838 104.838a101.695 101.695 0 0 0 45.081-10.484v100.646c1.859 19.249 18.228 34.114 37.567 34.114 19.34 0 35.709-14.865 37.568-34.114v-97.151a148.51 148.51 0 0 0 45.08 7.339 139.771 139.771 0 0 0 30.054-3.495v183.817c2.537 35.269 32.261 62.932 67.621 62.932 35.359 0 65.084-27.663 67.621-62.932V636.593a192.927 192.927 0 0 0 104.839-30.753c53.003 41.076 127.668 41.076 180.672 0a104.878 104.878 0 0 0 75.139 31.727c57.512 0 104.838-47.326 104.838-104.838 0-.325-.001-.65-.004-.975l.349-.349Z"/>
  <path fill="#ccc" fill-rule="nonzero" d="M682.503 1157.98c0 11.599 9.544 21.143 21.143 21.143 11.598 0 21.142-9.544 21.142-21.143 0-11.598-9.544-21.142-21.142-21.142-11.599 0-21.143 9.544-21.143 21.142ZM332.584 1293.23c0 15.528 12.778 28.306 28.306 28.306 15.529 0 28.307-12.778 28.307-28.306 0-15.529-12.778-28.307-28.307-28.307-15.528 0-28.306 12.778-28.306 28.307ZM209.896 1123.11c0 7.528 6.194 13.723 13.723 13.723 7.528 0 13.723-6.195 13.723-13.723 0-7.529-6.195-13.724-13.723-13.724-7.529 0-13.723 6.195-13.723 13.724ZM510.199 1034.81c0 7.764 6.389 14.153 14.154 14.153 7.764 0 14.153-6.389 14.153-14.153s-6.389-14.153-14.153-14.153c-7.765 0-14.154 6.389-14.154 14.153Z"/>
  <path fill="#fff" fill-rule="nonzero" stroke="#45413c" stroke-width="34.95" d="M737.367 861.297c.117 1.474.175 2.952.175 4.431 0 30.865-25.398 56.263-56.263 56.263-30.866 0-56.264-25.398-56.264-56.263 0-1.479.058-2.957.175-4.431a365.174 365.174 0 0 1 47.527-107.634 11.193 11.193 0 0 1 9.435-5.592 10.493 10.493 0 0 1 9.086 5.592 356.081 356.081 0 0 1 46.129 107.634ZM967.207 1528.77c.582 34.188-26.971 62.843-61.155 63.602H112.073c-33.026-2.453-58.891-30.31-58.891-63.427 0-33.117 25.865-60.974 58.891-63.428h793.979c34.05.759 61.544 29.196 61.155 63.253Z"/>
  <g fill="#45413c" fill-rule="nonzero">
    <path d="M312.373 1375.38c50.217 0 84.64-26.728 84.64-85.45v-193.579h-56.696v192.769c0 28.349-11.745 35.638-30.374 35.638-19.439 0-27.538-13.364-36.448-29.158l-46.167 27.943c13.364 28.349 39.688 51.837 85.045 51.837ZM531.061 1375.38c53.861 0 93.954-27.943 93.954-78.97 0-47.382-27.133-68.441-75.325-89.095l-14.175-6.075c-24.298-10.529-34.828-17.414-34.828-34.423 0-13.769 10.53-24.298 27.134-24.298 16.199 0 26.728 6.884 36.448 24.298l44.142-28.348c-18.629-32.803-44.547-45.357-80.59-45.357-50.622 0-83.02 32.398-83.02 74.92 0 46.168 27.133 68.036 68.036 85.45l14.174 6.075c25.918 11.339 41.307 18.224 41.307 37.663 0 16.199-14.984 27.943-38.472 27.943-27.944 0-43.738-14.579-55.887-34.423l-46.167 26.729c16.604 32.803 50.622 57.911 103.269 57.911Z"/>
  </g>
  <path fill="#44403b" fill-rule="nonzero" d="M561.251 418.329c7.669-.404 12.916-8.107 12.916-16.549 0-12.109-9.624-24.787-18.97-31.483a40.46 40.46 0 0 0-26.236-8.476c-8.442 0-19.375 7.703-19.375 16.145s6.896 13.724 15.338 13.724c8.176 0 18.567 6.054 20.989 14.53 1.615 8.88 7.669 12.513 15.338 12.109ZM194.386 511.38c-.403-7.669-8.106-12.917-16.548-12.917-12.109 0-24.787 9.625-31.483 18.971a40.456 40.456 0 0 0-8.477 26.236c0 8.442 7.704 19.374 16.146 19.374 8.441 0 13.723-6.896 13.723-15.338 0-8.175 6.054-18.567 14.531-20.989 8.879-1.614 12.512-7.669 12.108-15.337Z"/>
  <circle cx="706.916" cy="450.347" r="22.622" fill="#45413c"/>
</svg>
