<svg xmlns="http://www.w3.org/2000/svg" xml:space="preserve" fill-rule="evenodd" stroke-linecap="round" stroke-linejoin="round" clip-rule="evenodd" viewBox="0 0 1184 1646">
  <path fill="#e5feff" fill-rule="nonzero" stroke="#45413c" stroke-width="34.95" d="M868.31 727.117v126.855h112.877c30.865 0 56.263 25.398 56.263 56.263l-.001.35v167.392c.19 45.813-27.53 87.393-69.892 104.839l-99.247 40.537v155.162l159.354-69.893c82.942-35.267 137.039-117.102 136.99-207.231V868.3c0-76.684-63.102-139.785-139.785-139.785l-156.559-1.398Z"/>
  <path fill="#d1b709" fill-rule="nonzero" d="M910.595 1463.43H106.831a144.373 144.373 0 0 0 42.285-100.296V600.258H868.31v762.876a145.77 145.77 0 0 0 42.285 102.043v-1.747Z"/>
  <path fill="#f3dc49" fill-rule="nonzero" d="M790.24 600.262H180.01v762.876c-.011 38.261-26.352 74.992-73.179 102.043H790.24V600.262Z"/>
  <path fill="#45413c" fill-opacity=".15" fill-rule="nonzero" d="M1.992 1590.29c0 28.756 228.742 52.419 506.721 52.419 277.978 0 506.72-23.663 506.72-52.419 0-28.756-228.742-52.419-506.72-52.419-277.979 0-506.721 23.663-506.721 52.419Z"/>
  <path fill="none" stroke="#45413c" stroke-width="34.95" d="M910.595 1463.43H106.831a144.373 144.373 0 0 0 42.285-100.296V600.258H868.31v762.876a145.77 145.77 0 0 0 42.285 102.043v-1.747Z"/>
  <path fill="#e4c900" fill-rule="nonzero" d="M234.035 924.563c0 23.197 19.089 42.285 42.285 42.285 23.197 0 42.285-19.088 42.285-42.285 0-23.197-19.088-42.285-42.285-42.285-23.196 0-42.285 19.088-42.285 42.285ZM557.987 751.3c0 15.528 12.778 28.306 28.306 28.306 15.529 0 28.307-12.778 28.307-28.306 0-15.529-12.778-28.307-28.307-28.307-15.528 0-28.306 12.778-28.306 28.307Z"/>
  <path fill="#fff" fill-rule="nonzero" stroke="#45413c" stroke-width="34.95" d="M842.449 297.977c0 22.047 18.142 40.188 40.189 40.188 22.046 0 40.188-18.141 40.188-40.188 0-22.046-18.142-40.188-40.188-40.188-22.047 0-40.189 18.142-40.189 40.188ZM92.853 291.337c0 19.363 15.933 35.296 35.295 35.296 19.363 0 35.296-15.933 35.296-35.296 0-19.362-15.933-35.295-35.296-35.295-19.362 0-35.295 15.933-35.295 35.295Z"/>
  <path fill="#45413c" fill-opacity=".15" fill-rule="nonzero" d="M149.116 685.88c5.004.329 10.023.329 15.027 0a101.71 101.71 0 0 0 45.081-10.483v100.645a37.54 37.54 0 0 0-.175 3.627c0 20.705 17.037 37.742 37.742 37.742 20.704 0 37.742-17.037 37.742-37.742 0-1.211-.059-2.422-.175-3.627V679.94a148.541 148.541 0 0 0 45.081 7.338 139.831 139.831 0 0 0 30.053-3.494v183.817c2.537 35.268 32.262 62.931 67.621 62.931 35.36 0 65.084-27.663 67.621-62.931V687.278a192.924 192.924 0 0 0 104.839-30.752c53.003 41.076 127.669 41.076 180.672 0a104.88 104.88 0 0 0 74.785 31.102c4.419.361 8.86.361 13.28 0v-87.366H149.116v85.618Z"/>
  <path fill="none" stroke="#45413c" stroke-width="34.95" d="M313.713 39.026V17.708M358.793 57.547l14.678-15.027M377.315 102.278h20.968M358.793 147.009l14.678 15.027M313.713 165.88v20.968M268.982 147.009l-15.027 15.027M250.46 102.278h-21.317M268.982 57.547 253.955 42.52M649.546 174.267v-56.263M621.24 146.31h56.263"/>
  <path fill="#fff" fill-rule="nonzero" stroke="#45413c" stroke-width="34.95" d="M960.218 529.321c0-57.513-47.326-104.838-104.839-104.838a107.65 107.65 0 0 0-26.209 3.494c-23.062-56.705-78.57-93.895-139.785-93.656-9.733.048-19.442.984-29.006 2.796-35.429-57.696-98.464-92.959-166.17-92.959-66.54 0-128.648 34.058-164.421 90.163-61.215-.239-116.723 36.951-139.785 93.656a107.657 107.657 0 0 0-26.21-3.494c-57.512 0-104.838 47.325-104.838 104.838 0 57.513 47.326 104.839 104.838 104.839a101.695 101.695 0 0 0 45.081-10.484v100.645c1.859 19.25 18.228 34.115 37.567 34.115 19.34 0 35.709-14.865 37.568-34.115v-97.15a148.509 148.509 0 0 0 45.08 7.338 139.77 139.77 0 0 0 30.054-3.494v183.817c2.537 35.268 32.261 62.931 67.621 62.931 35.359 0 65.084-27.663 67.621-62.931V634.509a192.926 192.926 0 0 0 104.839-30.752c53.003 41.076 127.668 41.076 180.672 0a104.878 104.878 0 0 0 75.139 31.727c57.512 0 104.838-47.326 104.838-104.839 0-.325-.001-.649-.004-.974l.349-.35Z"/>
  <path fill="#e4c900" fill-rule="nonzero" d="M656.885 1206.58c0 23.197 19.088 42.285 42.285 42.285 23.197 0 42.285-19.088 42.285-42.285 0-23.197-19.088-42.285-42.285-42.285-23.197 0-42.285 19.088-42.285 42.285Z"/>
  <path fill="#ebcb00" fill-rule="nonzero" d="M332.584 1291.15c0 15.529 12.778 28.307 28.306 28.307 15.529 0 28.307-12.778 28.307-28.307 0-15.528-12.778-28.306-28.307-28.306-15.528 0-28.306 12.778-28.306 28.306Z"/>
  <path fill="#e4c900" fill-rule="nonzero" d="M205.729 1074.83c0 15.528 12.778 28.306 28.306 28.306 15.529 0 28.307-12.778 28.307-28.306s-12.778-28.306-28.307-28.306c-15.528 0-28.306 12.778-28.306 28.306ZM614.6 948.214c0 15.529 12.778 28.307 28.306 28.307 15.529 0 28.307-12.778 28.307-28.307 0-15.528-12.778-28.306-28.307-28.306-15.528 0-28.306 12.778-28.306 28.306Z"/>
  <path fill="#fff" fill-rule="nonzero" stroke="#45413c" stroke-width="34.95" d="M737.367 859.214c.117 1.474.175 2.952.175 4.43 0 30.866-25.398 56.264-56.263 56.264-30.866 0-56.264-25.398-56.264-56.264 0-1.478.058-2.956.175-4.43a365.18 365.18 0 0 1 47.527-107.635 11.192 11.192 0 0 1 9.435-5.591 10.494 10.494 0 0 1 9.086 5.591 356.087 356.087 0 0 1 46.129 107.635Z"/>
  <path fill="#e5feff" fill-rule="nonzero" stroke="#45413c" stroke-width="34.95" d="M967.207 1526.69c.582 34.188-26.971 62.843-61.155 63.602H112.073c-33.026-2.453-58.891-30.311-58.891-63.427 0-33.117 25.865-60.975 58.891-63.428h793.979c34.05.759 61.544 29.196 61.155 63.253Z"/>
  <g fill="#45413c" fill-rule="nonzero">
    <path d="M312.373 1373.29c50.217 0 84.64-26.729 84.64-85.45v-193.579h-56.696v192.769c0 28.348-11.745 35.638-30.374 35.638-19.439 0-27.538-13.364-36.448-29.159l-46.167 27.944c13.364 28.348 39.688 51.837 85.045 51.837ZM531.061 1373.29c53.861 0 93.954-27.944 93.954-78.971 0-47.382-27.133-68.441-75.325-89.094l-14.175-6.075c-24.298-10.529-34.828-17.414-34.828-34.423 0-13.769 10.53-24.299 27.134-24.299 16.199 0 26.728 6.885 36.448 24.299l44.142-28.348c-18.629-32.804-44.547-45.358-80.59-45.358-50.622 0-83.02 32.398-83.02 74.921 0 46.167 27.133 68.036 68.036 85.45l14.174 6.075c25.918 11.339 41.307 18.224 41.307 37.662 0 16.199-14.984 27.944-38.472 27.944-27.944 0-43.738-14.579-55.887-34.423l-46.167 26.728c16.604 32.803 50.622 57.912 103.269 57.912Z"/>
  </g>
  <path fill="#44403b" fill-rule="nonzero" d="M561.251 416.246c7.669-.404 12.916-8.107 12.916-16.549 0-12.109-9.624-24.787-18.97-31.483a40.45 40.45 0 0 0-26.236-8.476c-8.442 0-19.375 7.703-19.375 16.145s6.896 13.723 15.338 13.723c8.176 0 18.567 6.055 20.989 14.531 1.615 8.88 7.669 12.512 15.338 12.109ZM194.386 509.296c-.403-7.669-8.106-12.916-16.548-12.916-12.109 0-24.787 9.625-31.483 18.971a40.456 40.456 0 0 0-8.477 26.236c0 8.441 7.704 19.374 16.146 19.374 8.441 0 13.723-6.896 13.723-15.338 0-8.176 6.054-18.567 14.531-20.989 8.879-1.614 12.512-7.669 12.108-15.338Z"/>
  <circle cx="706.916" cy="448.263" r="22.622" fill="#45413c"/>
</svg>
