<svg xmlns="http://www.w3.org/2000/svg" xml:space="preserve" fill-rule="evenodd" stroke-linejoin="round" stroke-miterlimit="2" clip-rule="evenodd" viewBox="0 0 1196 1380">
  <path fill="#e5feff" fill-rule="nonzero" d="m916.532 334.263-799.411 1.522v929.591c0 60.709 51.573 110.666 114.247 110.666H802.6c62.674 0 114.246-49.957 114.246-110.666v-930.56l-.314-.553Z"/>
  <path fill="#45413c" d="m883.2 334.326-766.079 1.459v929.591c0 60.709 51.573 110.666 114.247 110.666H802.6c62.674 0 114.246-49.957 114.246-110.666V365.404l-.314 2.192-.572-.332-32.447-32.448v3.971a31.902 31.902 0 0 1-.313-4.461Zm.313 33.333v897.717c0 42.72-36.811 77.332-80.913 77.332H231.368c-44.102 0-80.913-34.612-80.913-77.332V369.054l733.058-1.395Z"/>
  <path fill="#f3dc49" fill-rule="nonzero" stroke="#45413c" stroke-width="25" d="M900.852 1257.05V334.807l-.302-.548-767.434 1.508v921.283h767.736Z"/>
  <path fill="#d1b709" fill-rule="nonzero" d="m890.011 334.263 10.841 922.791H759.908V334.263h130.103Z"/>
  <path fill="none" stroke="#45413c" stroke-width="33.33" d="M900.852 1257.05V334.807l-.302-.548-767.434 1.508v921.283h767.736Z"/>
  <path fill="#e5feff" fill-rule="nonzero" stroke="#45413c" stroke-width="33.33" d="M1175.04 568.834v468.867c0 60.167-49.509 109.677-109.676 109.677H900.849v-109.677h164.515V568.834H900.849V459.157h164.515c60.167 0 109.676 49.51 109.676 109.677Z"/>
  <circle cx="548.332" cy="540.88" r="29.204" fill="#e4c900"/>
  <circle cx="455.686" cy="1064.38" r="29.204" fill="#e4c900"/>
  <circle cx="439.903" cy="714.934" r="29.204" fill="#e4c900"/>
  <circle cx="235.321" cy="577.114" r="18.445" fill="#e4c900"/>
  <circle cx="580.374" cy="856.743" r="18.445" fill="#e4c900"/>
  <circle cx="297.889" cy="931.136" r="18.445" fill="#e4c900"/>
  <clipPath id="a">
    <path d="M952.811 266.976c20.866 92.603-74.654 166.692-164.378 121.056v231.5c0 30.083-24.754 54.838-54.838 54.838-30.083 0-54.838-24.755-54.838-54.838V509.855c0-37.866 1.371-107.73-120.644-107.73A36.428 36.428 0 0 0 531.9 413.23a137.117 137.117 0 0 1-98.534 41.787 137.115 137.115 0 0 1-96.087-39.319 47.793 47.793 0 0 0-33.78-13.573 27.378 27.378 0 0 0-24.568 15.328c-27.057 55.915-83.7 91.809-145.815 92.402v218.75c-1.371 30.874-25.911 55.442-56.209 55.442-30.298 0-56.209-24.568-56.209-54.839V400.179c0-130.433 115.187-234.27 248.856-217.133C307.919 113.61 381.239 70.353 460.57 70.353c62.63 0 122.325 26.961 163.733 73.95a106.577 106.577 0 0 1 57.196-16.369c46.463-.01 88.116 29.506 103.507 73.346a109.687 109.687 0 0 1 61.106-18.599c50.622 0 94.984 35.047 106.699 84.295Z" clip-rule="nonzero"/>
  </clipPath>
  <g clip-path="url(#a)">
    <path fill="#45413c" fill-opacity=".15" d="M133.116 345.962h767.736v422.301H133.116z"/>
  </g>
  <path fill="#fff" fill-rule="nonzero" stroke="#45413c" stroke-width="33.33" d="M952.811 214.332c20.866 92.602-74.654 166.691-164.378 121.055v231.5c0 30.083-24.754 54.838-54.838 54.838-30.083 0-54.838-24.755-54.838-54.838V457.21c0-37.866 1.371-107.729-120.644-107.729a36.427 36.427 0 0 0-26.213 11.104 137.117 137.117 0 0 1-98.534 41.787 137.11 137.11 0 0 1-96.087-39.319 47.787 47.787 0 0 0-33.78-13.572 27.375 27.375 0 0 0-24.568 15.327c-27.057 55.916-83.7 91.81-145.815 92.402v218.75c-1.371 30.874-25.911 55.442-56.209 55.442-30.298 0-56.209-24.568-56.209-54.839V347.534c0-130.433 115.187-234.269 248.856-217.132C307.919 60.965 381.239 17.708 460.57 17.708c62.63 0 122.325 26.961 163.733 73.95a106.577 106.577 0 0 1 57.196-16.369c46.463-.01 88.116 29.507 103.507 73.346a109.695 109.695 0 0 1 61.106-18.599c50.622 0 94.984 35.048 106.699 84.296Z"/>
  <circle cx="683.237" cy="156.358" r="21.723" fill="#45413c"/>
  <circle cx="347.084" cy="211.952" r="17.899" fill="#45413c"/>
  <circle cx="872.166" cy="265.424" r="13.792" fill="#45413c"/>
  <circle cx="85.237" cy="328.488" r="13.792" fill="#45413c"/>
  <g fill="#45413c" fill-rule="nonzero">
    <path d="M302.288 1162.13c47.922 0 80.772-25.507 80.772-81.546V895.85h-54.106v183.961c0 27.054-11.208 34.01-28.985 34.01-18.551 0-26.28-12.754-34.783-27.826l-44.058 26.667c12.754 27.053 37.875 49.468 81.16 49.468ZM510.983 1162.13c51.401 0 89.662-26.666 89.662-75.362 0-45.217-25.894-65.314-71.884-85.024l-13.527-5.797c-23.188-10.048-33.237-16.618-33.237-32.85 0-13.14 10.049-23.189 25.894-23.189 15.459 0 25.507 6.57 34.783 23.189l42.125-27.053c-17.777-31.305-42.512-43.285-76.908-43.285-48.309 0-79.227 30.917-79.227 71.497 0 44.058 25.894 64.928 64.928 81.546l13.526 5.797c24.734 10.821 39.42 17.391 39.42 35.942 0 15.459-14.299 26.667-36.714 26.667-26.667 0-41.74-13.913-53.334-32.851l-44.058 25.508c15.846 31.304 48.309 55.265 98.551 55.265Z"/>
  </g>
  <path fill="none" stroke="#45413c" stroke-linecap="round" stroke-miterlimit="1.5" stroke-width="33.33" d="M559.119 123.091c-3.647-15.707-12.904-23.999-28.631-23.744M874.652 210.105c-2.666-10.616-9.435-16.222-20.935-16.049M383.519 108.775c-15.706 3.647-23.999 12.904-23.743 28.631M138.282 229.909c-18.894 2.753-31.767 22.953-35.168 46.897"/>
</svg>
