<svg xmlns="http://www.w3.org/2000/svg" xml:space="preserve" fill-rule="evenodd" stroke-linejoin="round" stroke-miterlimit="2" clip-rule="evenodd" viewBox="0 0 1192 1380">
  <path fill="#fff" fill-rule="nonzero" d="m914.803 336.346-799.411 1.522v929.591c0 60.71 51.573 110.666 114.246 110.666H800.87c62.674 0 114.247-49.956 114.247-110.666V336.9l-.314-.554Z"/>
  <path fill="#45413c" d="m881.47 336.41-766.078 1.458v929.591c0 60.71 51.573 110.666 114.246 110.666H800.87c62.674 0 114.247-49.956 114.247-110.666V367.488l-.314 2.192-.572-.333-32.448-32.447v3.97a32.04 32.04 0 0 1-.313-4.46Zm.313 33.332v897.717c0 42.72-36.81 77.333-80.913 77.333H229.638c-44.102 0-80.913-34.613-80.913-77.333V371.138l733.058-1.396Z"/>
  <path fill="#f5f5f5" fill-rule="nonzero" stroke="#45413c" stroke-width="25" d="M899.122 1259.14V336.898l-.301-.549-767.435 1.508v921.283h767.736Z"/>
  <path fill="#cdcdcd" fill-rule="nonzero" d="m888.282 336.346 10.84 922.791H758.179V336.346h130.103Z"/>
  <path fill="none" stroke="#45413c" stroke-width="33.33" d="M899.122 1259.14V336.898l-.301-.549-767.435 1.508v921.283h767.736Z"/>
  <path fill="#fff" fill-rule="nonzero" stroke="#45413c" stroke-width="33.33" d="M1173.31 570.917v468.867c0 60.167-49.51 109.677-109.677 109.677H899.118v-109.677h164.515V570.917H899.118V461.24h164.515c60.167 0 109.677 49.51 109.677 109.677Z"/>
  <circle cx="546.603" cy="542.963" r="29.204" fill="#ccc" fill-opacity=".36"/>
  <circle cx="453.956" cy="1066.47" r="29.204" fill="#ccc" fill-opacity=".36"/>
  <circle cx="438.174" cy="717.017" r="29.204" fill="#ccc"/>
  <circle cx="233.591" cy="579.198" r="18.445" fill="#ccc"/>
  <circle cx="578.645" cy="858.826" r="18.445" fill="#ccc"/>
  <circle cx="296.159" cy="933.22" r="18.445" fill="#ccc"/>
  <clipPath id="a">
    <path d="M951.082 269.06c20.866 92.602-74.655 166.692-164.378 121.055v231.5c0 30.083-24.755 54.838-54.838 54.838-30.084 0-54.839-24.755-54.839-54.838V511.938c0-37.865 1.371-107.729-120.644-107.729a36.428 36.428 0 0 0-26.213 11.104 137.117 137.117 0 0 1-98.534 41.788 137.113 137.113 0 0 1-96.087-39.32 47.787 47.787 0 0 0-33.78-13.572 27.377 27.377 0 0 0-24.568 15.327c-27.057 55.916-83.699 91.81-145.815 92.402v218.75c-1.371 30.874-25.911 55.442-56.209 55.442-30.298 0-56.209-24.568-56.209-54.838v-329.03c0-130.433 115.188-234.269 248.856-217.132C306.189 115.693 379.51 72.436 458.841 72.436c62.63 0 122.324 26.961 163.732 73.95a106.577 106.577 0 0 1 57.196-16.369c46.463-.009 88.117 29.507 103.507 73.346a109.695 109.695 0 0 1 61.106-18.599c50.622 0 94.985 35.048 106.7 84.296Z" clip-rule="nonzero"/>
  </clipPath>
  <g clip-path="url(#a)">
    <path fill="#45413c" fill-opacity=".15" d="M131.386 348.045h767.736v422.301H131.386z"/>
  </g>
  <path fill="#fff" fill-rule="nonzero" stroke="#45413c" stroke-width="33.33" d="M951.082 216.415c20.866 92.603-74.655 166.692-164.378 121.055v231.5c0 30.084-24.755 54.839-54.838 54.839-30.084 0-54.839-24.755-54.839-54.839V459.294c0-37.866 1.371-107.73-120.644-107.73a36.425 36.425 0 0 0-26.213 11.105 137.12 137.12 0 0 1-98.534 41.787 137.113 137.113 0 0 1-96.087-39.32 47.787 47.787 0 0 0-33.78-13.572 27.378 27.378 0 0 0-24.568 15.327c-27.057 55.916-83.699 91.81-145.815 92.403v218.75c-1.371 30.874-25.911 55.441-56.209 55.441-30.298 0-56.209-24.567-56.209-54.838v-329.03c0-130.433 115.188-234.269 248.856-217.132C306.189 63.048 379.51 19.792 458.841 19.792c62.63 0 122.324 26.961 163.732 73.95a106.578 106.578 0 0 1 57.196-16.37c46.463-.009 88.117 29.507 103.507 73.347a109.688 109.688 0 0 1 61.106-18.6c50.622 0 94.985 35.048 106.7 84.296Z"/>
  <circle cx="681.507" cy="158.441" r="21.723" fill="#45413c"/>
  <circle cx="345.354" cy="214.035" r="17.899" fill="#45413c"/>
  <circle cx="870.436" cy="267.508" r="13.792" fill="#45413c"/>
  <circle cx="83.507" cy="330.572" r="13.792" fill="#45413c"/>
  <g fill="#45413c" fill-rule="nonzero">
    <path d="M300.558 1164.21c47.923 0 80.773-25.508 80.773-81.546V897.93h-54.106v183.961c0 27.053-11.208 34.009-28.986 34.009-18.551 0-26.28-12.753-34.783-27.826l-44.057 26.667c12.753 27.053 37.874 49.469 81.159 49.469ZM509.253 1164.21c51.401 0 89.662-26.667 89.662-75.363 0-45.217-25.894-65.314-71.884-85.024l-13.527-5.797c-23.188-10.048-33.236-16.618-33.236-32.85 0-13.14 10.048-23.188 25.893-23.188 15.459 0 25.508 6.57 34.783 23.188l42.126-27.053c-17.778-31.304-42.512-43.285-76.909-43.285-48.309 0-79.226 30.918-79.226 71.497 0 44.058 25.893 64.928 64.927 81.546l13.527 5.797c24.734 10.822 39.42 17.392 39.42 35.942 0 15.459-14.3 26.667-36.715 26.667-26.667 0-41.739-13.913-53.333-32.85l-44.058 25.507c15.845 31.304 48.309 55.266 98.55 55.266Z"/>
  </g>
  <path fill="none" stroke="#45413c" stroke-linecap="round" stroke-miterlimit="1.5" stroke-width="33.33" d="M557.389 125.174c-3.646-15.707-12.904-23.999-28.631-23.743M872.922 212.189c-2.666-10.617-9.435-16.222-20.934-16.049M381.789 110.859c-15.706 3.646-23.998 12.903-23.743 28.63M136.552 231.993c-18.893 2.752-31.767 22.953-35.167 46.896"/>
</svg>
