<svg xmlns="http://www.w3.org/2000/svg" xml:space="preserve" fill-rule="evenodd" stroke-linecap="round" stroke-linejoin="round" clip-rule="evenodd" viewBox="0 0 1196 1417">
  <path fill="#e5feff" fill-rule="nonzero" d="M1054.76 436.204a294.394 294.394 0 0 0-185.219-61.03v141.515a154.255 154.255 0 0 1 99.129 32.163c39.326 29.745 62.452 76.32 62.379 125.628a1422.826 1422.826 0 0 1-13.249 185.848c-7.651 62.165-51.737 114.085-111.839 131.713-11.75 3.147-23.98 5.455-36.42 7.703v143.493a605.53 605.53 0 0 0 73.17-14.208c115.751-31.856 201.258-130.949 215.824-250.116a1560.468 1560.468 0 0 0 14.448-204.463c.194-93.505-43.643-181.846-118.223-238.246Z"/>
  <path fill="none" stroke="#45413c" stroke-width="37.47" d="M1054.76 436.204a294.394 294.394 0 0 0-185.219-61.03v141.515a154.255 154.255 0 0 1 99.129 32.163c39.326 29.745 62.452 76.32 62.379 125.628a1422.826 1422.826 0 0 1-13.249 185.848c-7.651 62.165-51.737 114.085-111.839 131.713-11.75 3.147-23.98 5.455-36.42 7.703v143.493a605.53 605.53 0 0 0 73.17-14.208c115.751-31.856 201.258-130.949 215.824-250.116a1560.468 1560.468 0 0 0 14.448-204.463c.194-93.505-43.643-181.846-118.223-238.246Z"/>
  <path fill="#e5feff" fill-rule="nonzero" stroke="#45413c" stroke-width="37.47" d="M795.289 1297.19c-224.637 132.912-449.264 132.912-673.88 0-45.591-26.574-73.843-75.406-74.16-128.175V284.168h822.289v884.847c-.329 52.789-28.62 101.628-74.249 128.175Z"/>
  <ellipse cx="458.334" cy="284.169" fill="none" stroke="#45413c" stroke-width="37.47" rx="411.204" ry="141.784"/>
  <path fill="#f3dc49" fill-rule="nonzero" d="M790.642 364.653c0-44.064-148.738-79.765-332.248-79.765s-332.309 35.551-332.309 79.765c0 33.902-30.575 652.807 53.177 804.513 35.551 64.417 124.938 93.554 279.072 93.554 154.134 0 243.521-29.137 279.102-93.554 83.751-151.856 53.206-770.761 53.206-804.513Z"/>
  <path fill="#d1b709" fill-rule="nonzero" d="M737.436 1084.07c-35.581 64.418-124.968 93.554-279.102 93.554-154.134 0-243.521-29.256-279.192-93.554-44.964-81.653-56.954-298.586-58.453-486.862-1.498 202.634 6.355 477.6 58.453 571.933 35.551 64.417 124.938 93.554 279.072 93.554 154.134 0 243.521-29.137 279.102-93.554 52.067-94.333 59.951-369.299 58.422-571.933-1.289 188.156-13.249 405.089-58.302 486.862Z"/>
  <path fill="none" stroke="#45413c" stroke-width="37.47" d="M790.642 364.653c0-44.064-148.738-79.765-332.248-79.765s-332.309 35.551-332.309 79.765c0 33.902-30.575 652.807 53.177 804.513 35.551 64.417 124.938 93.554 279.072 93.554 154.134 0 243.521-29.137 279.102-93.554 83.751-151.856 53.206-770.761 53.206-804.513Z"/>
  <path fill="#fefbeb" fill-rule="nonzero" stroke="#45413c" stroke-width="37.47" d="M472.512 624.481a1464.595 1464.595 0 0 0 323.316-34.202c-1.019-119.902-5.246-213.216-5.246-225.776 0-44.064-148.738-79.765-332.248-79.765s-332.249 35.701-332.249 79.915c0 12.44-4.107 103.985-5.186 222.208a1803.061 1803.061 0 0 0 351.613 37.62Z"/>
  <path fill="#fefcec" fill-rule="nonzero" d="M741.932 168.313c-6.369.157-12.719.758-19.004 1.799-16.283-53.834-66.666-90.6-122.9-89.687a132.105 132.105 0 0 0-54.466 11.99c-21.881-43.623-66.905-71.068-115.705-70.532-38.945-.163-75.957 17.251-100.658 47.361a175.033 175.033 0 0 0-112.018-40.047c-90.736-2.285-167.352 70.33-169.932 161.058a152.7 152.7 0 0 0 5.995 42.506 146.912 146.912 0 0 0-34.471 93.973c1.925 68.918 48.823 128.957 115.226 147.509 11.473 59.674 65.162 102.587 125.897 100.628 67.014 2.776 124.516-49.903 127.606-116.904a107.06 107.06 0 0 0-6.355-34.652c25.089 1.679 50.748 2.758 77.247 2.758 225.086 0 407.667-62.379 410.904-139.716-3.388-66.96-60.342-119.745-127.366-118.044Z"/>
  <path fill="#fcf8d8" fill-rule="nonzero" d="M49.378 415.611a149.402 149.402 0 0 1 32.313-69.273 152.31 152.31 0 0 1-6.205-42.506C78.049 213 154.821 140.326 245.657 142.744a174.796 174.796 0 0 1 112.019 40.047c24.693-30.12 61.71-47.537 100.658-47.361 48.758-.563 93.767 26.804 115.705 70.353a132.554 132.554 0 0 1 54.466-11.991c56.229-.927 106.614 35.83 122.899 89.657a136.826 136.826 0 0 1 19.005-1.798c32.733-.162 64.357 12 88.548 34.052a57.923 57.923 0 0 0 10.401-29.526c-3.482-66.913-60.445-119.602-127.426-117.864-6.369.157-12.719.758-19.004 1.799-16.283-53.834-66.666-90.6-122.9-89.687a132.105 132.105 0 0 0-54.466 11.99c-21.881-43.623-66.905-71.068-115.705-70.532-38.945-.163-75.957 17.251-100.658 47.361a175.033 175.033 0 0 0-112.018-40.047c-90.736-2.285-167.352 70.33-169.932 161.058a152.7 152.7 0 0 0 5.995 42.506c-44.442 52.076-46.067 128.941-3.866 182.85Z"/>
  <path fill="none" stroke="#45413c" stroke-width="37.47" d="M741.932 168.313c-6.369.157-12.719.758-19.004 1.799-16.283-53.834-66.666-90.6-122.9-89.687a132.105 132.105 0 0 0-54.466 11.99c-21.881-43.623-66.905-71.068-115.705-70.532-38.945-.163-75.957 17.251-100.658 47.361a175.033 175.033 0 0 0-112.018-40.047c-90.736-2.285-167.352 70.33-169.932 161.058a152.7 152.7 0 0 0 5.995 42.506 146.912 146.912 0 0 0-34.471 93.973c1.925 68.918 48.823 128.957 115.226 147.509 11.473 59.674 65.162 102.587 125.897 100.628 67.014 2.776 124.516-49.903 127.606-116.904a107.06 107.06 0 0 0-6.355-34.652c25.089 1.679 50.748 2.758 77.247 2.758 225.086 0 407.667-62.379 410.904-139.716-3.388-66.96-60.342-119.745-127.366-118.044Z"/>
  <circle cx="344.906" cy="298.347" r="28.357" fill="#f9f0a9"/>
  <circle cx="674.637" cy="723.999" r="28.357" fill="#e4c900"/>
  <circle cx="225.004" cy="951.813" r="16.367" fill="#e4c900"/>
  <circle cx="548.74" cy="806.537" r="16.367" fill="#e4c900"/>
  <circle cx="305.938" cy="752.356" r="25.359" fill="#e4c900"/>
  <circle cx="231.479" cy="213.276" r="28.357" fill="#f9f0a9"/>
  <circle cx="259.836" cy="411.804" r="28.357" fill="#f9f0a9"/>
  <circle cx="146.378" cy="355.091" r="28.357" fill="#f9f0a9"/>
  <g fill="#44403b" fill-rule="nonzero">
    <path d="M373.308 1115.49c37.531 0 63.258-19.976 63.258-63.863V906.952h-42.374v144.07c0 21.186-8.777 26.634-22.7 26.634-14.528 0-20.581-9.988-27.24-21.792l-34.504 20.884c9.988 21.187 29.662 38.742 63.56 38.742ZM536.749 1115.49c40.255 0 70.219-20.884 70.219-59.02 0-35.412-20.279-51.151-56.297-66.587l-10.593-4.54c-18.16-7.87-26.029-13.015-26.029-25.727 0-10.291 7.869-18.16 20.278-18.16 12.107 0 19.976 5.145 27.241 18.16l32.99-21.187c-13.922-24.516-33.293-33.898-60.231-33.898-37.833 0-62.046 24.213-62.046 55.993 0 34.504 20.278 50.848 50.848 63.863l10.593 4.54c19.371 8.475 30.872 13.62 30.872 28.148 0 12.107-11.199 20.884-28.753 20.884-20.884 0-32.688-10.896-41.768-25.727l-34.504 19.976c12.409 24.516 37.833 43.282 77.18 43.282Z"/>
  </g>
</svg>
